<svg height="485pt" viewBox="0 0 485 485.08" width="485pt" xmlns="http://www.w3.org/2000/svg"><path d="m293.289062 481.078125h-148v-81.507813h148zm0 0" fill="#f9cfcf"/><path d="m293.289062 485.078125h-148c-2.207031 0-4-1.789063-4-4v-81.507813c0-2.207031 1.792969-4 4-4h148c2.210938 0 4 1.792969 4 4v81.507813c0 2.210937-1.789062 4-4 4zm-144-8h140v-73.507813h-140zm0 0" fill="#3762cc"/><path d="m195.613281 453.507812h.90625c85.34375 0 154.53125-69.1875 154.53125-154.535156v-72.285156c0-85.347656-69.1875-154.535156-154.53125-154.535156h-.90625c-85.34375 0-154.53125 69.1875-154.53125 154.535156v72.285156c0 85.34375 69.1875 154.535156 154.53125 154.535156zm0 0" fill="#f9cfcf"/><path d="m70.332031 297.480469c8.105469 0 14.679688-6.570313 14.679688-14.679688v-29.355469c0-8.109374-6.574219-14.679687-14.679688-14.679687-8.109375 0-14.683593 6.570313-14.683593 14.679687v29.355469c0 8.109375 6.574218 14.679688 14.683593 14.679688zm0 0" fill="#3762cc"/><path d="m198.160156 297.480469h1.886719c8.597656 0 15.570313-6.96875 15.570313-15.570313v-27.574218c0-8.601563-6.96875-15.570313-15.570313-15.570313h-1.886719c-8.597656 0-15.570312 6.96875-15.570312 15.570313v27.574218c0 8.601563 6.96875 15.570313 15.570312 15.570313zm0 0" fill="#3762cc"/><path d="m286.894531 253.394531h82.878907v-17.886719c0-4.054687-3.285157-7.34375-7.339844-7.34375h-75.539063zm0 0" fill="#6bdddd"/><path d="m273.445312 217.171875 13.449219 10.992187v25.230469l-13.449219 14.730469zm0 0" fill="#6bdddd"/><path d="m128.996094 372.613281c-10.878906 0-24.574219-1.953125-30.390625-7.425781-2.320313-2.183594-2.808594-4.425781-2.808594-5.925781 0-2.207031 1.792969-4 4-4 2.132813 0 3.878906 1.671875 3.996094 3.777343.046875.066407.136719.175782.296875.324219 2.769531 2.609375 12.214844 5.25 24.90625 5.25 15.722656 0 24.140625-3.855469 25.207031-5.5625.109375-2.109375 1.855469-3.789062 3.992187-3.789062 2.210938 0 4 1.792969 4 4 0 9.222656-16.671874 13.351562-33.199218 13.351562zm-25.199219-13.351562h.023437zm0 0" fill="#3762cc"/><path d="m140.101562 224.511719v71.386719c0 14.191406 11.503907 25.691406 25.6875 25.691406h66.976563c14.1875 0 25.6875-11.503906 25.6875-25.691406v-13.84375c0-2.453126 1.226563-4.746094 3.265625-6.105469l11.726562-7.824219v-50.953125h-21.722656v.0625c-.203125-.019531-.398437-.0625-.609375-.0625h-103.671875c-4.054687 0-7.339844 3.285156-7.339844 7.339844zm14.679688 14.679687c0-4.054687 3.289062-7.339844 7.339844-7.339844h74.316406c4.054688 0 7.339844 3.285157 7.339844 7.339844v56.707032c0 6.078124-4.929688 11.007812-11.011719 11.007812h-66.972656c-6.082031 0-11.011719-4.929688-11.011719-11.007812zm0 0" fill="#f9a7a7"/><g fill="#3762cc"><path d="m369.773438 257.398438h-82.878907c-2.207031 0-4-1.792969-4-4v-25.230469c0-2.207031 1.792969-4 4-4h75.539063c6.253906 0 11.339844 5.089843 11.339844 11.339843v17.890626c0 2.207031-1.792969 4-4 4zm-78.878907-8h74.878907v-13.890626c0-1.84375-1.5-3.339843-3.339844-3.339843h-71.539063zm0 0"/><path d="m273.445312 272.125c-.484374 0-.976562-.089844-1.445312-.273438-1.542969-.59375-2.554688-2.078124-2.554688-3.726562v-50.953125c0-1.542969.890626-2.953125 2.289063-3.617187 1.390625-.660157 3.046875-.457032 4.242187.519531l13.453126 10.992187c.929687.761719 1.464843 1.898438 1.464843 3.097656v25.230469c0 1-.371093 1.960938-1.042969 2.699219l-13.453124 14.726562c-.773438.84375-1.851563 1.304688-2.953126 1.304688zm4-46.515625v32.203125l5.449219-5.964844v-21.785156zm0 0"/><path d="m232.765625 325.585938h-66.972656c-16.371094 0-29.691407-13.316407-29.691407-29.6875v-71.386719c0-6.25 5.089844-11.339844 11.339844-11.339844h103.671875c.113281 0 .222657.003906.332031.011719.089844-.007813.183594-.011719.28125-.011719h21.71875c2.210938 0 4 1.792969 4 4v50.953125c0 1.335938-.667968 2.585938-1.777343 3.328125l-11.726563 7.820313c-.929687.621093-1.488281 1.660156-1.488281 2.777343v13.847657c0 16.371093-13.316406 29.6875-29.6875 29.6875zm-85.324219-104.414063c-1.839844 0-3.339844 1.5-3.339844 3.339844v71.386719c0 11.957031 9.730469 21.6875 21.691407 21.6875h66.972656c11.957031 0 21.6875-9.726563 21.6875-21.6875v-13.847657c0-3.796875 1.886719-7.324219 5.050781-9.433593l9.941406-6.636719v-44.808594h-17.066406c-.324218.054687-.660156.066406-.996094.046875-.132812-.011719-.269531-.03125-.402343-.046875zm85.324219 89.738281h-66.972656c-8.277344 0-15.011719-6.730468-15.011719-15.011718v-56.707032c0-6.25 5.089844-11.339844 11.339844-11.339844h74.316406c6.25 0 11.335938 5.089844 11.335938 11.339844v56.707032c0 8.277343-6.730469 15.011718-15.007813 15.011718zm-70.644531-75.058594c-1.839844 0-3.339844 1.5-3.339844 3.339844v56.707032c0 3.867187 3.144531 7.011718 7.011719 7.011718h66.972656c3.863281 0 7.007813-3.144531 7.007813-7.011718v-56.707032c0-1.839844-1.496094-3.339844-3.335938-3.339844zm0 0"/></g><path d="m395.554688 293.585938c0-29.492188-24.046876-53.398438-53.710938-53.398438s-53.714844 23.90625-53.714844 53.398438c0 29.488281 24.050782 53.394531 53.714844 53.394531s53.710938-23.90625 53.710938-53.394531zm0 0" fill="#f9cfcf"/><path d="m336.03125 312.570312h11.625c10.132812 0 18.347656-8.214843 18.347656-18.347656 0-10.132812-8.214844-18.351562-18.347656-18.351562h-11.625c-10.132812 0-18.347656 8.21875-18.347656 18.351562 0 10.136719 8.214844 18.347656 18.347656 18.347656zm0 0" fill="#6bdddd"/><path d="m347.65625 316.574219h-11.625c-12.324219 0-22.347656-10.027344-22.347656-22.351563 0-12.324218 10.023437-22.347656 22.347656-22.347656h11.625c12.320312 0 22.347656 10.023438 22.347656 22.347656 0 12.324219-10.027344 22.351563-22.347656 22.351563zm-11.625-36.699219c-7.910156 0-14.347656 6.4375-14.347656 14.347656 0 7.914063 6.4375 14.351563 14.347656 14.351563h11.625c7.910156 0 14.347656-6.4375 14.347656-14.351563 0-7.910156-6.4375-14.347656-14.347656-14.347656zm0 0" fill="#3762cc"/><path d="m196.070312 457.503906c-87.664062 0-158.984374-70.914062-158.984374-158.078125v-73.191406c0-87.167969 71.320312-158.082031 158.984374-158.082031 86.660157 0 157.351563 69.304687 158.957032 155.105468h7.40625c6.253906 0 11.339844 5.066407 11.339844 11.292969v11.242188c16.1875 10.679687 25.78125 28.378906 25.78125 47.789062 0 30.273438-23.109376 54.882813-53.117188 57.207031-22.0625 63.945313-82.140625 106.714844-150.367188 106.714844zm0-381.351562c-83.257812 0-150.984374 67.328125-150.984374 150.082031v73.191406c0 82.753907 67.726562 150.082031 150.984374 150.082031 65.679688 0 123.402344-41.714843 143.632813-103.804687.523437-1.605469 1.996094-2.710937 3.683594-2.757813 27.007812-.820312 48.167969-22.503906 48.167969-49.359374 0-17.351563-8.917969-33.113282-23.855469-42.171876-1.195313-.722656-1.925781-2.019531-1.925781-3.417968v-13.441406c0-1.820313-1.5-3.296876-3.339844-3.296876h-11.382813c-2.207031 0-4-1.792968-4-4v-1.023437c0-82.753906-67.726562-150.082031-150.980469-150.082031zm0 0" fill="#3762cc"/><path d="m7.765625 104.726562s.53125-3.058593 1.753906-7.988281c2.070313-8.601562 4.402344-15.769531 6.414063-21.167969 1.171875-4.019531 2.808594-7.839843 4.839844-11.40625.472656-.820312.960937-1.628906 1.472656-2.421874 4.40625-8.6875 9.984375-17.203126 16.9375-23.941407 5.03125-4.871093 10.777344-8.8125 17.332031-11.203125 17.875-9.734375 46.132813-19.933594 67.917969-3.671875 8.089844-11.445312 21.417968-18.921875 36.5-18.921875h88.945312c23.324219 0 45.40625 5.332032 65.089844 14.835938 22.148438 8.632812 45.078125 22.292968 61.804688 43.871094 13.359374 13.988281 21.886718 32.625 22.871093 53.25.03125.1875.070313.363281.101563.554687l-.085938.007813c.046875 1.148437.085938 2.296874.085938 3.453124v72.472657c0 5.066406-4.109375 9.171875-9.171875 9.171875h-229.789063c-24.597656 0-44.535156-19.9375-44.535156-44.535156v-2.226563c0 25.824219-20.9375 46.761719-46.765625 46.761719h-50.324219c-3.242187 0-6.097656-2.132813-7.042968-5.230469-10.835938-35.527344-9.039063-67.859375-4.351563-91.664063zm0 0" fill="#4671c6"/><path d="m341.84375 350.984375c-2.210938 0-4-1.792969-4-4s1.789062-4 4-4c27.410156 0 49.707031-22.160156 49.707031-49.398437 0-27.238282-22.296875-49.398438-49.707031-49.398438-11.464844 0-22.234375 3.765625-31.140625 10.886719-1.722656 1.378906-4.242187 1.105469-5.621094-.625-1.382812-1.722657-1.101562-4.242188.625-5.621094 10.191407-8.152344 23.027344-12.640625 36.136719-12.640625 31.820312 0 57.707031 25.746094 57.707031 57.398438 0 31.648437-25.886719 57.398437-57.707031 57.398437zm0 0" fill="#3762cc"/><path d="m336.03125 275.875c-2.984375 0-5.789062.726562-8.28125 1.992188v-49.703126h14.679688v47.710938zm0 0" fill="#f9a7a7"/><path d="m327.75 281.867188c-.726562 0-1.457031-.199219-2.09375-.59375-1.1875-.726563-1.90625-2.015626-1.90625-3.40625v-49.703126c0-2.207031 1.789062-4 4-4h14.679688c2.207031 0 4 1.792969 4 4v47.710938c0 2.207031-1.792969 4-4 4h-6.398438c-2.253906 0-4.433594.523438-6.472656 1.558594-.566406.289062-1.191406.433594-1.808594.433594zm4-49.703126v40.125c1.398438-.277343 2.832031-.414062 4.28125-.414062h2.398438v-39.710938zm0 0" fill="#3762cc"/><path d="m25.164062 271.085938v17.472656c0 18.242187 14.785157 33.03125 33.027344 33.03125h25.6875c14.1875 0 25.6875-11.503906 25.6875-25.691406v-71.386719c0-4.054688-3.285156-7.339844-7.339844-7.339844h-69.722656c-.316406 0-.617187.054687-.917968.09375v-.09375h-2.753907c-2.027343 0-3.667969 1.644531-3.667969 3.671875zm14.679688-31.894532c0-4.054687 3.285156-7.339844 7.339844-7.339844h40.367187c4.054688 0 7.339844 3.285157 7.339844 7.339844v56.707032c0 6.078124-4.929687 11.007812-11.011719 11.007812h-25.6875c-10.132812 0-18.347656-8.214844-18.347656-18.347656zm0 0" fill="#f9a7a7"/><path d="m83.878906 325.585938h-25.6875c-20.417968 0-37.027344-16.613282-37.027344-37.027344v-67.714844c0-4.230469 3.441407-7.671875 7.667969-7.671875h2.753907c.132812 0 .273437.007813.40625.019531.175781-.011718.339843-.019531.511718-.019531h69.722656c6.253907 0 11.34375 5.089844 11.34375 11.339844v71.386719c0 16.371093-13.320312 29.6875-29.691406 29.6875zm-54.714844-104.414063v67.386719c0 16.003906 13.023438 29.027344 29.027344 29.027344h25.6875c11.960938 0 21.691406-9.726563 21.691406-21.6875v-71.386719c0-1.839844-1.496093-3.339844-3.339843-3.339844l-70.160157.0625c-.453124.050781-.902343.03125-1.335937-.0625zm54.714844 89.738281h-25.6875c-12.324218 0-22.347656-10.027344-22.347656-22.351562v-49.367188c0-6.25 5.085938-11.339844 11.339844-11.339844h40.367187c6.25 0 11.339844 5.089844 11.339844 11.339844v56.707032c0 8.277343-6.730469 15.011718-15.011719 15.011718zm-36.695312-75.058594c-1.84375 0-3.339844 1.5-3.339844 3.339844v49.367188c0 7.914062 6.4375 14.351562 14.347656 14.351562h25.6875c3.867188 0 7.011719-3.144531 7.011719-7.011718v-56.707032c0-1.839844-1.5-3.339844-3.339844-3.339844zm0 0" fill="#3762cc"/><path d="m101.195312 273.808594h36.695313c5.066406 0 9.175781-4.105469 9.175781-9.171875 0-5.066407-4.109375-9.175781-9.175781-9.175781h-36.695313c-5.066406 0-9.175781 4.109374-9.175781 9.175781 0 5.066406 4.109375 9.171875 9.175781 9.171875zm0 0" fill="#6bdddd"/><path d="m137.894531 277.808594h-36.699219c-7.265624 0-13.175781-5.910156-13.175781-13.171875 0-7.265625 5.910157-13.175781 13.175781-13.175781h36.699219c7.265625 0 13.175781 5.910156 13.175781 13.175781 0 7.261719-5.910156 13.171875-13.175781 13.171875zm-36.699219-18.347656c-2.855468 0-5.175781 2.320312-5.175781 5.175781 0 2.851562 2.320313 5.171875 5.175781 5.171875h36.699219c2.855469 0 5.175781-2.320313 5.175781-5.171875 0-2.855469-2.320312-5.175781-5.175781-5.175781zm0 0" fill="#3762cc"/><path d="m369.773438 247.992188v-13.4375c0-4.03125-3.285157-7.296876-7.339844-7.296876h-11.382813v-1.023437c0-8.378906-.699219-16.597656-1.992187-24.613281h36.128906c-1.394531 22.8125-4.464844 42.03125-6.542969 53.128906-2.710937-2.539062-5.671875-4.816406-8.871093-6.757812zm0 0" fill="#4671c6"/><path d="m390.570312 205.621094h-229.785156c-20.253906 0-37.652344-12.472656-44.914062-30.140625-7.921875 17.742187-25.730469 30.140625-46.382813 30.140625h-50.328125c-5.03125 0-9.394531-3.242188-10.867187-8.066406-9.222657-30.226563-10.722657-61.707032-4.464844-93.558594.078125-.417969.628906-3.472656 1.804687-8.214844 1.796876-7.480469 3.988282-14.710938 6.5-21.46875 1.242188-4.21875 2.976563-8.296875 5.164063-12.125.472656-.828125.960937-1.636719 1.472656-2.433594 5.164063-10.140625 11.09375-18.492187 17.625-24.824218 5.691407-5.507813 11.898438-9.539063 18.460938-11.980469 19.28125-10.457031 46.363281-19.464844 68.707031-5.460938 9.21875-11.015625 22.910156-17.488281 37.367188-17.488281h88.945312c23.359375 0 45.792969 5.105469 66.691406 15.167969 26.96875 10.535156 48.242188 25.648437 63.238282 44.929687 14.316406 15.054688 22.769531 34.710938 23.820312 55.402344l.0625.347656c.074219.449219.074219.90625-.003906 1.34375.035156.925782.058594 1.851563.058594 2.785156v72.46875c0 7.265626-5.910157 13.175782-13.171876 13.175782zm-270.320312-50.765625v2.226562c0 22.351563 18.183594 40.539063 40.535156 40.539063h229.785156c2.855469 0 5.175782-2.320313 5.175782-5.175782v-72.46875c0-1.105468-.042969-2.199218-.085938-3.289062-.003906-.121094-.003906-.234375 0-.347656-.003906-.0625-.011718-.128906-.015625-.1875-.898437-18.933594-8.632812-36.929688-21.769531-50.679688-.09375-.097656-.183594-.203125-.269531-.3125-14.128907-18.226562-34.347657-32.558594-60.089844-42.59375-.097656-.039062-.191406-.082031-.289063-.125-19.84375-9.582031-41.15625-14.441406-63.351562-14.441406h-88.945312c-13.179688 0-25.605469 6.441406-33.234376 17.230469-.621093.882812-1.574218 1.472656-2.640624 1.644531-1.054688.171875-2.148438-.101562-3.015626-.746094-19.628906-14.65625-45.425781-5.921875-63.609374 3.980469-.175782.09375-.359376.175781-.542969.246094-5.605469 2.042969-10.960938 5.515625-15.921875 10.316406-5.933594 5.75-11.367188 13.449219-16.152344 22.875-.058594.125-.128906.242187-.203125.355469-.472656.734375-.929687 1.480468-1.363281 2.246094-1.898438 3.324218-3.40625 6.875-4.472656 10.539062-.027344.09375-.058594.1875-.09375.277344-2.417969 6.496094-4.53125 13.464844-6.273438 20.710937-1.175781 4.730469-1.699219 7.707031-1.707031 7.738281-.003907.027344-.007813.054688-.015625.082032-6.011719 30.5625-4.582032 60.75 4.257812 89.71875.433594 1.414062 1.753906 2.402344 3.214844 2.402344h50.324219c23.582031 0 42.765625-19.183594 42.765625-42.765626 0-2.207031 1.792968-4 4-4 2.207031 0 4.003906 1.796876 4.003906 4.003907zm-112.488281-50.125h.019531zm0 0" fill="#3762cc"/><path d="m378.648438 258.75c-1 0-1.980469-.375-2.730469-1.078125-2.566407-2.402344-5.332031-4.507813-8.21875-6.261719-1.195313-.722656-1.925781-2.019531-1.925781-3.417968v-13.441407c0-1.816406-1.496094-3.292969-3.339844-3.292969h-11.378906c-2.207032 0-4-1.792968-4-4v-1.023437c0-7.9375-.652344-16.003906-1.941407-23.976563-.1875-1.15625.144531-2.339843.902344-3.230468.761719-.894532 1.875-1.40625 3.042969-1.40625h36.128906c1.105469 0 2.160156.453125 2.914062 1.257812.757813.804688 1.148438 1.882813 1.078126 2.984375-1.375 22.546875-4.347657 41.605469-6.601563 53.625-.269531 1.4375-1.296875 2.609375-2.6875 3.0625-.402344.136719-.824219.199219-1.242187.199219zm-4.875-12.953125c.722656.480469 1.4375.980469 2.140624 1.496094 1.820313-10.738281 3.824219-25.144531 5-41.671875h-27.226562c.773438 5.875 1.222656 11.78125 1.335938 17.636718h7.410156c6.25 0 11.339844 5.066407 11.339844 11.292969zm0 0" fill="#3762cc"/><path d="m409.179688 241.769531c-2.027344-1.324219-4.605469-1.703125-7.082032-1.042969-2.675781.71875-4.816406 2.5-5.882812 4.890626-1.511719 3.390624-.363282 7.21875 2.785156 9.308593 3.714844 2.46875 6.277344 5.960938 7.40625 10.09375 1.128906 4.132813.695312 8.445313-1.25 12.457031-1.652344 3.402344-.691406 7.28125 2.332031 9.433594 2.105469 1.5 4.824219 1.953125 7.464844 1.246094 2.507813-.671875 4.570313-2.316406 5.65625-4.519531 3.625-7.34375 4.480469-15.566407 2.410156-23.152344-2.074219-7.582031-6.988281-14.226563-13.839843-18.714844zm0 0" fill="#ffea92"/><path d="m420.226562 214.5625c-1.902343-.917969-4.121093-1.109375-6.246093-.539062-2.660157.710937-4.800781 2.488281-5.863281 4.875-1.679688 3.765624-.0625 8.003906 3.757812 9.855468 12.167969 5.886719 20.71875 15.902344 24.074219 28.203125 3.359375 12.300781 1.082031 25.269531-6.402344 36.523438-2.355469 3.539062-1.59375 8.007812 1.773437 10.402343 2.097657 1.492188 4.804688 1.945313 7.4375 1.242188 2.15625-.578125 3.996094-1.878906 5.1875-3.664062 10.070313-15.082032 13.128907-32.496094 8.613282-49.035157-4.511719-16.539062-15.996094-29.984375-32.332032-37.863281zm0 0" fill="#ffea92"/><path d="m431.640625 187.972656c-1.808594-.777344-3.898437-.917968-5.875-.386718-2.628906.703124-4.824219 2.527343-5.875 4.886718-.832031 1.863282-.890625 3.90625-.175781 5.746094.734375 1.875 2.207031 3.367188 4.144531 4.199219 20.84375 8.972656 36.023437 25.914062 41.636719 46.476562 5.613281 20.5625 1.148437 42.863281-12.246094 61.183594-1.246094 1.703125-1.753906 3.734375-1.433594 5.722656.316406 1.949219 1.40625 3.675781 3.074219 4.863281 2.101563 1.496094 4.816406 1.949219 7.449219 1.242188h.003906c2.007812-.535156 3.765625-1.722656 4.945312-3.339844 16.230469-22.203125 21.628907-49.25 14.816407-74.203125-6.808594-24.960937-25.207031-45.507812-50.464844-56.390625zm0 0" fill="#ffea92"/></svg>